HIERARCHY
ROOT joint_Root
{
	OFFSET 0.0 0.0 0.0
	CHANNELS 6 Xposition Yposition Zposition Zrotation Xrotation Yrotation 
	JOINT Hips
	{
		OFFSET 4.5925 91.4895 -427.239
		CHANNELS 6 Xposition Yposition Zposition Zrotation Xrotation Yrotation 
		JOINT Spine
		{
			OFFSET 15.7357 0.0 0.0
			CHANNELS 6 Xposition Yposition Zposition Zrotation Xrotation Yrotation 
			JOINT Chest
			{
				OFFSET 8.98455 -0.406207 0.0
				CHANNELS 6 Xposition Yposition Zposition Zrotation Xrotation Yrotation 
				JOINT Neck
				{
					OFFSET 16.3773 0.0 0.0
					CHANNELS 6 Xposition Yposition Zposition Zrotation Xrotation Yrotation 
					JOINT Head
					{
						OFFSET 6.45672 0.0 0.0
						CHANNELS 6 Xposition Yposition Zposition Zrotation Xrotation Yrotation 
						End Site
						{
							OFFSET 0.0 0.0 0.0
						}
					}
				}
				JOINT Shoulder_L
				{
					OFFSET 12.9942 -0.242716 4.98039
					CHANNELS 6 Xposition Yposition Zposition Zrotation Xrotation Yrotation 
					JOINT UpperArm_L
					{
						OFFSET 5.34809 0.0 0.0
						CHANNELS 6 Xposition Yposition Zposition Zrotation Xrotation Yrotation 
						JOINT LowerArm_L
						{
							OFFSET 24.3286 1.87007e-05 0.0
							CHANNELS 6 Xposition Yposition Zposition Zrotation Xrotation Yrotation 
							JOINT Hand_L
							{
								OFFSET 22.2916 0.0 0.0
								CHANNELS 6 Xposition Yposition Zposition Zrotation Xrotation Yrotation 
								End Site
								{
									OFFSET 0.0 0.0 0.0
								}
							}
						}
					}
				}
				JOINT Shoulder_R
				{
					OFFSET 12.9945 -0.242716 -4.98039
					CHANNELS 6 Xposition Yposition Zposition Zrotation Xrotation Yrotation 
					JOINT UpperArm_R
					{
						OFFSET -5.34813 0.0 0.0
						CHANNELS 6 Xposition Yposition Zposition Zrotation Xrotation Yrotation 
						JOINT LowerArm_R
						{
							OFFSET -24.3289 0.000322201 0.0
							CHANNELS 6 Xposition Yposition Zposition Zrotation Xrotation Yrotation 
							JOINT Hand_R
							{
								OFFSET -22.2915 -0.000108084 0.0
								CHANNELS 6 Xposition Yposition Zposition Zrotation Xrotation Yrotation 
								End Site
								{
									OFFSET 0.0 0.0 0.0
								}
							}
						}
					}
				}
			}
		}
		JOINT UpperLeg_L
		{
			OFFSET -2.19248 -6.46944 0.0
			CHANNELS 6 Xposition Yposition Zposition Zrotation Xrotation Yrotation 
			JOINT LowerLeg_L
			{
				OFFSET 39.0811 0.0 -1.23785e-05
				CHANNELS 6 Xposition Yposition Zposition Zrotation Xrotation Yrotation 
				JOINT Foot_L
				{
					OFFSET 40.9854 0.0 -1.26872e-05
					CHANNELS 6 Xposition Yposition Zposition Zrotation Xrotation Yrotation 
					JOINT Toes_L
					{
						OFFSET 11.7543 0.0 0.0
						CHANNELS 6 Xposition Yposition Zposition Zrotation Xrotation Yrotation 
						End Site
						{
							OFFSET 0.0 0.0 0.0
						}
					}
				}
			}
		}
		JOINT UpperLeg_R
		{
			OFFSET -2.19251 6.46944 0.0
			CHANNELS 6 Xposition Yposition Zposition Zrotation Xrotation Yrotation 
			JOINT LowerLeg_R
			{
				OFFSET -39.0811 -0.00228153 -0.0401928
				CHANNELS 6 Xposition Yposition Zposition Zrotation Xrotation Yrotation 
				JOINT Foot_R
				{
					OFFSET -40.9854 0.0 0.0
					CHANNELS 6 Xposition Yposition Zposition Zrotation Xrotation Yrotation 
					JOINT Toes_R
					{
						OFFSET -11.7543 0.0 0.0
						CHANNELS 6 Xposition Yposition Zposition Zrotation Xrotation Yrotation 
						End Site
						{
							OFFSET 0.0 0.0 0.0
						}
					}
				}
			}
		}
	}
}
MOTION
Frames:	8
Frame Time:	0.0333333
0.000000 0.000000 0.000000 0.000000 0.000000 -0.000000 0.228509 91.359900 -0.887121 90.965600 -3.599760 7.638940 15.735700 0.000005 -0.000001 89.058400 84.252300 -86.392600 8.984550 -0.406207 -0.000000 3.740090 -0.282164 5.334970 16.377300 -0.000001 -0.000001 15.041700 -4.286290 -3.679150 6.456720 -0.000001 -0.000000 6.141680 -6.436720 -5.137700 12.994200 -0.242716 4.980390 -84.661400 -9.685320 -60.950100 5.348090 -0.000007 -0.000001 -29.291700 -58.639700 -56.247800 24.328600 0.000019 0.000005 -6.248190 -9.204410 -34.411500 22.291600 -0.000001 0.000005 20.042800 4.774690 11.790700 12.994500 -0.242716 -4.980390 88.920300 3.393440 -72.338400 -5.348130 -0.000001 -0.000004 -64.537100 14.364100 -1.784390 -24.328900 0.000322 -0.000009 -1.909070 -5.883750 -18.002800 -22.291500 -0.000108 -0.000004 17.514200 5.406690 -3.156100 -2.192480 -6.469440 -0.000000 -176.694000 -13.427000 -1.417440 39.081100 -0.000007 -0.000012 -0.162588 0.316561 27.185600 40.985400 -0.000006 -0.000013 0.020943 4.814850 -67.942400 11.754300 -0.000000 0.000003 -0.000115 -0.001157 -16.621800 -2.192510 6.469440 -0.000001 173.178000 20.812800 178.247000 -39.081100 -0.002282 -0.040193 -0.182179 0.340925 28.549100 -40.985400 0.000008 0.000006 2.854930 14.429900 -68.852900 -11.754300 -0.000006 -0.000006 -0.001810 -0.026316 -17.643200
0.000000 0.000000 0.000000 0.000000 0.000000 -0.000000 0.483298 91.368300 -1.040910 91.148100 -4.162220 7.352080 15.735700 0.000005 -0.000001 87.275900 84.167500 -84.089300 8.984550 -0.406207 -0.000000 3.912320 -0.660541 6.388790 16.377300 -0.000001 -0.000001 15.088300 -4.988880 -1.344140 6.456720 -0.000001 -0.000000 5.453080 -6.784450 -5.697080 12.994200 -0.242716 4.980390 -85.082500 -9.592090 -62.691100 5.348090 -0.000007 -0.000001 -33.483100 -57.507500 -47.678900 24.328600 0.000019 0.000005 -7.244520 -15.593100 -25.307000 22.291600 -0.000001 0.000005 18.646700 4.443090 17.534600 12.994500 -0.242716 -4.980390 88.816000 3.632170 -71.932300 -5.348130 -0.000001 -0.000004 -62.931900 14.621100 -3.360380 -24.328900 0.000322 -0.000009 -2.331190 -6.696000 -19.237600 -22.291500 -0.000108 -0.000004 17.721000 5.417150 -3.503060 -2.192480 -6.469440 -0.000000 -177.038000 -14.229400 -1.729150 39.081100 -0.000007 -0.000012 -0.156555 0.305850 27.106800 40.985400 -0.000006 -0.000013 0.249313 4.930650 -67.865900 11.754300 -0.000000 0.000003 -0.000107 -0.001090 -16.619300 -2.192510 6.469440 -0.000001 173.143000 20.044400 177.566000 -39.081100 -0.002282 -0.040193 -0.182853 0.340018 28.700600 -40.985400 0.000008 0.000006 2.655430 14.261400 -68.678900 -11.754300 -0.000006 -0.000006 -0.001648 -0.024214 -17.557700
0.000000 0.000000 0.000000 0.000000 0.000000 -0.000000 0.737390 91.392000 -1.187430 91.272400 -4.756790 6.959770 15.735700 0.000005 -0.000001 86.020000 84.145200 -82.395100 8.984550 -0.406207 -0.000000 3.955660 -0.931777 7.274110 16.377300 -0.000001 -0.000001 15.367100 -5.588900 0.733134 6.456720 -0.000001 -0.000000 4.948900 -7.389170 -5.848820 12.994200 -0.242716 4.980390 -86.021900 -8.028630 -63.530700 5.348090 -0.000007 -0.000001 -41.074700 -59.718400 -44.535700 24.328600 0.000019 0.000005 -3.050060 -7.966290 -21.029900 22.291600 -0.000001 0.000005 20.337600 4.219880 21.011500 12.994500 -0.242716 -4.980390 88.707800 3.937650 -71.816200 -5.348130 -0.000001 -0.000004 -61.649600 14.122700 -4.446310 -24.328900 0.000322 -0.000009 -2.553120 -7.097760 -19.835300 -22.291500 -0.000108 -0.000004 17.880700 5.428240 -3.878580 -2.192480 -6.469440 -0.000000 -177.389000 -14.817500 -2.139900 39.081100 -0.000007 -0.000012 -0.153711 0.302061 26.970500 40.985400 -0.000006 -0.000013 0.407304 4.827600 -67.753300 11.754300 -0.000000 0.000003 -0.000098 -0.001008 -16.616300 -2.192510 6.469440 -0.000001 173.163000 19.421000 176.849000 -39.081100 -0.002282 -0.040193 -0.181168 0.336651 28.721300 -40.985400 0.000008 0.000006 2.486510 14.271400 -68.444300 -11.754300 -0.000006 -0.000006 -0.001764 -0.025716 -17.618800
0.000000 0.000000 0.000000 0.000000 0.000000 -0.000000 0.864643 91.366800 -1.162910 91.284000 -4.930170 7.048900 15.735700 0.000005 -0.000001 86.303800 84.048900 -82.468200 8.984550 -0.406207 -0.000000 4.153050 -0.886645 7.694870 16.377300 -0.000001 -0.000001 15.319800 -6.094200 2.620810 6.456720 -0.000001 -0.000000 4.957160 -8.514160 -6.409700 12.994200 -0.242716 4.980390 -86.718700 -6.843640 -64.306100 5.348090 -0.000007 -0.000001 -45.520100 -61.341300 -42.777100 24.328600 0.000019 0.000005 -2.190920 -5.994700 -20.119600 22.291600 -0.000001 0.000005 24.799700 4.177880 21.640100 12.994500 -0.242716 -4.980390 88.689800 4.009240 -71.886000 -5.348130 -0.000001 -0.000004 -61.739900 12.918800 -4.275990 -24.328900 0.000322 -0.000009 -2.735020 -7.619190 -19.807100 -22.291500 -0.000108 -0.000004 18.546700 5.432220 -4.015680 -2.192480 -6.469440 -0.000000 -177.399000 -15.160700 -2.071740 39.081100 -0.000007 -0.000012 -0.154270 0.301375 27.107400 40.985400 -0.000006 -0.000013 0.534669 4.979420 -67.872100 11.754300 -0.000000 0.000003 -0.000102 -0.001047 -16.617700 -2.192510 6.469440 -0.000001 172.956000 19.681100 176.873000 -39.081100 -0.002282 -0.040193 -0.183165 0.338433 28.854100 -40.985400 0.000008 0.000006 2.531730 14.766500 -68.489800 -11.754300 -0.000006 -0.000006 -0.001671 -0.024517 -17.570000
0.000000 0.000000 0.000000 0.000000 0.000000 -0.000000 0.816034 91.323200 -1.009920 91.193200 -4.251710 7.774030 15.735700 0.000005 -0.000001 87.409700 83.851000 -83.548200 8.984550 -0.406207 -0.000000 4.553730 -0.662667 7.740720 16.377300 -0.000001 -0.000001 15.475400 -6.319120 2.928580 6.456720 -0.000001 -0.000000 4.812910 -8.933450 -6.662040 12.994200 -0.242716 4.980390 -86.751600 -6.826600 -64.476100 5.348090 -0.000007 -0.000001 -55.195600 -62.348700 -51.055300 24.328600 0.000019 0.000005 -3.565700 -10.614800 -18.690500 22.291600 -0.000001 0.000005 29.343900 4.077850 23.109400 12.994500 -0.242716 -4.980390 88.787300 3.752840 -72.077900 -5.348130 -0.000001 -0.000004 -62.779100 12.501500 -3.206470 -24.328900 0.000322 -0.000009 -3.076050 -9.137440 -18.689900 -22.291500 -0.000108 -0.000004 19.166800 5.429770 -3.931250 -2.192480 -6.469440 -0.000000 -177.092000 -14.785200 -1.368410 39.081100 -0.000007 -0.000012 -0.153574 0.296831 27.356400 40.985400 -0.000006 -0.000013 0.592134 5.318400 -68.073800 11.754300 -0.000000 0.000003 -0.000093 -0.000970 -16.614800 -2.192510 6.469440 -0.000001 172.466000 20.840700 177.972000 -39.081100 -0.002282 -0.040193 -0.185550 0.341875 28.916800 -40.985400 0.000008 0.000006 2.694900 15.344900 -68.753500 -11.754300 -0.000006 -0.000006 -0.001601 -0.023599 -17.532700
0.000000 0.000000 0.000000 0.000000 0.000000 -0.000000 0.632365 91.302300 -0.894989 91.164400 -2.756830 8.352860 15.735700 0.000005 -0.000001 88.020900 83.840100 -84.303700 8.984550 -0.406207 -0.000000 4.574570 -0.527855 7.447190 16.377300 -0.000001 -0.000001 15.718700 -6.205250 1.628310 6.456720 -0.000001 -0.000000 5.153110 -8.720770 -7.297600 12.994200 -0.242716 4.980390 -86.344400 -7.723990 -64.575200 5.348090 -0.000007 -0.000001 -69.287900 -62.216300 -67.347200 24.328600 0.000019 0.000005 -3.802610 -11.653100 -18.214800 22.291600 -0.000001 0.000005 32.286700 4.080440 23.072700 12.994500 -0.242716 -4.980390 88.885200 3.474370 -72.197800 -5.348130 -0.000001 -0.000004 -64.012400 13.295600 -1.914770 -24.328900 0.000322 -0.000009 -2.504930 -8.623860 -16.257700 -22.291500 -0.000108 -0.000004 18.371900 5.421060 -3.634240 -2.192480 -6.469440 -0.000000 -176.938000 -13.606500 -0.902981 39.081100 -0.000007 -0.000012 -0.154326 0.296814 27.471900 40.985400 -0.000006 -0.000013 0.563352 5.715570 -68.090100 11.754300 -0.000000 0.000003 -0.000094 -0.000977 -16.615100 -2.192510 6.469440 -0.000001 172.081000 21.978800 179.043000 -39.081100 -0.002282 -0.040193 -0.186485 0.343922 28.891900 -40.985400 0.000008 0.000006 2.738790 15.097200 -69.002700 -11.754300 -0.000006 -0.000006 -0.001672 -0.024537 -17.570800
0.000000 0.000000 0.000000 0.000000 0.000000 -0.000000 0.387895 91.303800 -0.898374 91.230400 -1.091120 8.410610 15.735700 0.000005 -0.000001 88.248200 84.028200 -84.792800 8.984550 -0.406207 -0.000000 4.195740 -0.471892 6.920480 16.377300 -0.000001 -0.000001 16.326500 -5.718010 -0.543965 6.456720 -0.000001 -0.000000 5.359480 -8.162760 -7.833840 12.994200 -0.242716 4.980390 -85.872100 -8.719590 -64.542700 5.348090 -0.000007 -0.000001 -72.011800 -59.819200 -76.486400 24.328600 0.000019 0.000005 -3.135260 -8.331650 -20.708700 22.291600 -0.000001 0.000005 30.673000 4.273600 20.195200 12.994500 -0.242716 -4.980390 88.906000 3.425570 -72.276900 -5.348130 -0.000001 -0.000004 -64.903900 14.241600 -0.795578 -24.328900 0.000322 -0.000009 -1.244990 -5.188250 -13.501600 -22.291500 -0.000108 -0.000004 16.000900 5.389960 -2.613170 -2.192480 -6.469440 -0.000000 -176.984000 -12.498800 -1.052290 39.081100 -0.000007 -0.000012 -0.157324 0.302575 27.472400 40.985400 -0.000006 -0.000013 0.543849 6.294750 -67.917000 11.754300 -0.000000 0.000003 -0.000093 -0.000970 -16.614800 -2.192510 6.469440 -0.000001 172.070000 22.482300 179.412000 -39.081100 -0.002282 -0.040193 -0.187772 0.346696 28.860900 -40.985400 0.000008 0.000006 2.587520 13.923900 -69.145100 -11.754300 -0.000006 -0.000006 -0.001619 -0.023837 -17.542400
0.000000 0.000000 0.000000 0.000000 0.000000 -0.000000 0.137005 91.299000 -0.889462 91.242100 0.498801 8.385010 15.735700 0.000005 -0.000001 88.600200 84.166000 -85.485300 8.984550 -0.406207 -0.000000 3.916810 -0.389035 6.236260 16.377300 -0.000001 -0.000001 16.715100 -5.218160 -2.680320 6.456720 -0.000001 -0.000000 5.581100 -7.706600 -7.991840 12.994200 -0.242716 4.980390 -85.231100 -9.861220 -64.028100 5.348090 -0.000007 -0.000001 -69.204100 -57.532800 -82.587200 24.328600 0.000019 0.000005 -3.516640 -6.892140 -27.117900 22.291600 -0.000001 0.000005 27.789900 4.575520 15.331200 12.994500 -0.242716 -4.980390 88.961100 3.311900 -72.573700 -5.348130 -0.000001 -0.000004 -65.988600 14.222600 0.509870 -24.328900 0.000322 -0.000009 -0.397085 -1.929120 -11.603200 -22.291500 -0.000108 -0.000004 13.910100 5.355640 -1.546970 -2.192480 -6.469440 -0.000000 -176.968000 -11.512500 -1.290780 39.081100 -0.000007 -0.000012 -0.159219 0.305457 27.530900 40.985400 -0.000006 -0.000013 0.523776 6.886160 -67.791700 11.754300 -0.000000 0.000003 -0.000099 -0.001022 -16.616800 -2.192510 6.469440 -0.000001 172.138000 23.054700 179.689000 -39.081100 -0.002282 -0.040193 -0.190109 0.351434 28.826600 -40.985400 0.000008 0.000006 2.474860 12.881800 -69.292400 -11.754300 -0.000006 -0.000006 -0.001621 -0.023873 -17.543800
